%TF.GenerationSoftware,KiCad,Pcbnew,10.0.5*%
%TF.CreationDate,2026-08-06T12:23:12-04:00*%
%TF.ProjectId,carrier,63617272-6965-4722-9e6b-696361645f70,rev?*%
%TF.SameCoordinates,Original*%
%TF.FileFunction,AssemblyDrawing,Top*%
%FSLAX46Y46*%
G04 Gerber Fmt 4.6, Leading zero omitted, Abs format (unit mm)*
G04 Created by KiCad (PCBNEW 10.0.5) date 2026-08-06 12:23:12*
%MOMM*%
%LPD*%
G01*
G04 APERTURE LIST*
%ADD10C,0.150000*%
%ADD11C,0.100000*%
G04 APERTURE END LIST*
D10*
X2954819Y-28834285D02*
X3669104Y-28834285D01*
X3669104Y-28834285D02*
X3811961Y-28881904D01*
X3811961Y-28881904D02*
X3907200Y-28977142D01*
X3907200Y-28977142D02*
X3954819Y-29119999D01*
X3954819Y-29119999D02*
X3954819Y-29215237D01*
X4050057Y-28596190D02*
X4050057Y-27834285D01*
X2954819Y-27691427D02*
X3954819Y-27024761D01*
X2954819Y-27024761D02*
X3954819Y-27691427D01*
X3954819Y-26643808D02*
X2954819Y-26643808D01*
X3669104Y-26215237D02*
X3669104Y-25739047D01*
X3954819Y-26310475D02*
X2954819Y-25977142D01*
X2954819Y-25977142D02*
X3954819Y-25643809D01*
X2954819Y-25119999D02*
X2954819Y-24929523D01*
X2954819Y-24929523D02*
X3002438Y-24834285D01*
X3002438Y-24834285D02*
X3097676Y-24739047D01*
X3097676Y-24739047D02*
X3288152Y-24691428D01*
X3288152Y-24691428D02*
X3621485Y-24691428D01*
X3621485Y-24691428D02*
X3811961Y-24739047D01*
X3811961Y-24739047D02*
X3907200Y-24834285D01*
X3907200Y-24834285D02*
X3954819Y-24929523D01*
X3954819Y-24929523D02*
X3954819Y-25119999D01*
X3954819Y-25119999D02*
X3907200Y-25215237D01*
X3907200Y-25215237D02*
X3811961Y-25310475D01*
X3811961Y-25310475D02*
X3621485Y-25358094D01*
X3621485Y-25358094D02*
X3288152Y-25358094D01*
X3288152Y-25358094D02*
X3097676Y-25310475D01*
X3097676Y-25310475D02*
X3002438Y-25215237D01*
X3002438Y-25215237D02*
X2954819Y-25119999D01*
X4050057Y-24500952D02*
X4050057Y-23739047D01*
X3431009Y-23167618D02*
X3478628Y-23024761D01*
X3478628Y-23024761D02*
X3526247Y-22977142D01*
X3526247Y-22977142D02*
X3621485Y-22929523D01*
X3621485Y-22929523D02*
X3764342Y-22929523D01*
X3764342Y-22929523D02*
X3859580Y-22977142D01*
X3859580Y-22977142D02*
X3907200Y-23024761D01*
X3907200Y-23024761D02*
X3954819Y-23119999D01*
X3954819Y-23119999D02*
X3954819Y-23500951D01*
X3954819Y-23500951D02*
X2954819Y-23500951D01*
X2954819Y-23500951D02*
X2954819Y-23167618D01*
X2954819Y-23167618D02*
X3002438Y-23072380D01*
X3002438Y-23072380D02*
X3050057Y-23024761D01*
X3050057Y-23024761D02*
X3145295Y-22977142D01*
X3145295Y-22977142D02*
X3240533Y-22977142D01*
X3240533Y-22977142D02*
X3335771Y-23024761D01*
X3335771Y-23024761D02*
X3383390Y-23072380D01*
X3383390Y-23072380D02*
X3431009Y-23167618D01*
X3431009Y-23167618D02*
X3431009Y-23500951D01*
X3669104Y-22548570D02*
X3669104Y-22072380D01*
X3954819Y-22643808D02*
X2954819Y-22310475D01*
X2954819Y-22310475D02*
X3954819Y-21977142D01*
X20238095Y-92454819D02*
X20238095Y-91454819D01*
X20238095Y-91931009D02*
X20809523Y-91931009D01*
X20809523Y-92454819D02*
X20809523Y-91454819D01*
X21714285Y-91788152D02*
X21714285Y-92454819D01*
X21476190Y-91407200D02*
X21238095Y-92121485D01*
X21238095Y-92121485D02*
X21857142Y-92121485D01*
X19954819Y-28905714D02*
X20669104Y-28905714D01*
X20669104Y-28905714D02*
X20811961Y-28953333D01*
X20811961Y-28953333D02*
X20907200Y-29048571D01*
X20907200Y-29048571D02*
X20954819Y-29191428D01*
X20954819Y-29191428D02*
X20954819Y-29286666D01*
X21050057Y-28667619D02*
X21050057Y-27905714D01*
X19954819Y-27762856D02*
X20954819Y-27096190D01*
X19954819Y-27096190D02*
X20954819Y-27762856D01*
X20954819Y-26715237D02*
X19954819Y-26715237D01*
X20669104Y-26286666D02*
X20669104Y-25810476D01*
X20954819Y-26381904D02*
X19954819Y-26048571D01*
X19954819Y-26048571D02*
X20954819Y-25715238D01*
X19954819Y-25191428D02*
X19954819Y-25000952D01*
X19954819Y-25000952D02*
X20002438Y-24905714D01*
X20002438Y-24905714D02*
X20097676Y-24810476D01*
X20097676Y-24810476D02*
X20288152Y-24762857D01*
X20288152Y-24762857D02*
X20621485Y-24762857D01*
X20621485Y-24762857D02*
X20811961Y-24810476D01*
X20811961Y-24810476D02*
X20907200Y-24905714D01*
X20907200Y-24905714D02*
X20954819Y-25000952D01*
X20954819Y-25000952D02*
X20954819Y-25191428D01*
X20954819Y-25191428D02*
X20907200Y-25286666D01*
X20907200Y-25286666D02*
X20811961Y-25381904D01*
X20811961Y-25381904D02*
X20621485Y-25429523D01*
X20621485Y-25429523D02*
X20288152Y-25429523D01*
X20288152Y-25429523D02*
X20097676Y-25381904D01*
X20097676Y-25381904D02*
X20002438Y-25286666D01*
X20002438Y-25286666D02*
X19954819Y-25191428D01*
X21050057Y-24572381D02*
X21050057Y-23810476D01*
X20431009Y-23239047D02*
X20478628Y-23096190D01*
X20478628Y-23096190D02*
X20526247Y-23048571D01*
X20526247Y-23048571D02*
X20621485Y-23000952D01*
X20621485Y-23000952D02*
X20764342Y-23000952D01*
X20764342Y-23000952D02*
X20859580Y-23048571D01*
X20859580Y-23048571D02*
X20907200Y-23096190D01*
X20907200Y-23096190D02*
X20954819Y-23191428D01*
X20954819Y-23191428D02*
X20954819Y-23572380D01*
X20954819Y-23572380D02*
X19954819Y-23572380D01*
X19954819Y-23572380D02*
X19954819Y-23239047D01*
X19954819Y-23239047D02*
X20002438Y-23143809D01*
X20002438Y-23143809D02*
X20050057Y-23096190D01*
X20050057Y-23096190D02*
X20145295Y-23048571D01*
X20145295Y-23048571D02*
X20240533Y-23048571D01*
X20240533Y-23048571D02*
X20335771Y-23096190D01*
X20335771Y-23096190D02*
X20383390Y-23143809D01*
X20383390Y-23143809D02*
X20431009Y-23239047D01*
X20431009Y-23239047D02*
X20431009Y-23572380D01*
X20431009Y-22239047D02*
X20478628Y-22096190D01*
X20478628Y-22096190D02*
X20526247Y-22048571D01*
X20526247Y-22048571D02*
X20621485Y-22000952D01*
X20621485Y-22000952D02*
X20764342Y-22000952D01*
X20764342Y-22000952D02*
X20859580Y-22048571D01*
X20859580Y-22048571D02*
X20907200Y-22096190D01*
X20907200Y-22096190D02*
X20954819Y-22191428D01*
X20954819Y-22191428D02*
X20954819Y-22572380D01*
X20954819Y-22572380D02*
X19954819Y-22572380D01*
X19954819Y-22572380D02*
X19954819Y-22239047D01*
X19954819Y-22239047D02*
X20002438Y-22143809D01*
X20002438Y-22143809D02*
X20050057Y-22096190D01*
X20050057Y-22096190D02*
X20145295Y-22048571D01*
X20145295Y-22048571D02*
X20240533Y-22048571D01*
X20240533Y-22048571D02*
X20335771Y-22096190D01*
X20335771Y-22096190D02*
X20383390Y-22143809D01*
X20383390Y-22143809D02*
X20431009Y-22239047D01*
X20431009Y-22239047D02*
X20431009Y-22572380D01*
X20238095Y-3454819D02*
X20238095Y-2454819D01*
X20238095Y-2931009D02*
X20809523Y-2931009D01*
X20809523Y-3454819D02*
X20809523Y-2454819D01*
X21238095Y-2550057D02*
X21285714Y-2502438D01*
X21285714Y-2502438D02*
X21380952Y-2454819D01*
X21380952Y-2454819D02*
X21619047Y-2454819D01*
X21619047Y-2454819D02*
X21714285Y-2502438D01*
X21714285Y-2502438D02*
X21761904Y-2550057D01*
X21761904Y-2550057D02*
X21809523Y-2645295D01*
X21809523Y-2645295D02*
X21809523Y-2740533D01*
X21809523Y-2740533D02*
X21761904Y-2883390D01*
X21761904Y-2883390D02*
X21190476Y-3454819D01*
X21190476Y-3454819D02*
X21809523Y-3454819D01*
X19954819Y-56834285D02*
X20669104Y-56834285D01*
X20669104Y-56834285D02*
X20811961Y-56881904D01*
X20811961Y-56881904D02*
X20907200Y-56977142D01*
X20907200Y-56977142D02*
X20954819Y-57119999D01*
X20954819Y-57119999D02*
X20954819Y-57215237D01*
X21050057Y-56596190D02*
X21050057Y-55834285D01*
X19954819Y-55691427D02*
X20954819Y-55024761D01*
X19954819Y-55024761D02*
X20954819Y-55691427D01*
X20954819Y-54643808D02*
X19954819Y-54643808D01*
X20669104Y-54215237D02*
X20669104Y-53739047D01*
X20954819Y-54310475D02*
X19954819Y-53977142D01*
X19954819Y-53977142D02*
X20954819Y-53643809D01*
X19954819Y-53119999D02*
X19954819Y-52929523D01*
X19954819Y-52929523D02*
X20002438Y-52834285D01*
X20002438Y-52834285D02*
X20097676Y-52739047D01*
X20097676Y-52739047D02*
X20288152Y-52691428D01*
X20288152Y-52691428D02*
X20621485Y-52691428D01*
X20621485Y-52691428D02*
X20811961Y-52739047D01*
X20811961Y-52739047D02*
X20907200Y-52834285D01*
X20907200Y-52834285D02*
X20954819Y-52929523D01*
X20954819Y-52929523D02*
X20954819Y-53119999D01*
X20954819Y-53119999D02*
X20907200Y-53215237D01*
X20907200Y-53215237D02*
X20811961Y-53310475D01*
X20811961Y-53310475D02*
X20621485Y-53358094D01*
X20621485Y-53358094D02*
X20288152Y-53358094D01*
X20288152Y-53358094D02*
X20097676Y-53310475D01*
X20097676Y-53310475D02*
X20002438Y-53215237D01*
X20002438Y-53215237D02*
X19954819Y-53119999D01*
X21050057Y-52500952D02*
X21050057Y-51739047D01*
X20669104Y-51548570D02*
X20669104Y-51072380D01*
X20954819Y-51643808D02*
X19954819Y-51310475D01*
X19954819Y-51310475D02*
X20954819Y-50977142D01*
X20431009Y-50310475D02*
X20478628Y-50167618D01*
X20478628Y-50167618D02*
X20526247Y-50119999D01*
X20526247Y-50119999D02*
X20621485Y-50072380D01*
X20621485Y-50072380D02*
X20764342Y-50072380D01*
X20764342Y-50072380D02*
X20859580Y-50119999D01*
X20859580Y-50119999D02*
X20907200Y-50167618D01*
X20907200Y-50167618D02*
X20954819Y-50262856D01*
X20954819Y-50262856D02*
X20954819Y-50643808D01*
X20954819Y-50643808D02*
X19954819Y-50643808D01*
X19954819Y-50643808D02*
X19954819Y-50310475D01*
X19954819Y-50310475D02*
X20002438Y-50215237D01*
X20002438Y-50215237D02*
X20050057Y-50167618D01*
X20050057Y-50167618D02*
X20145295Y-50119999D01*
X20145295Y-50119999D02*
X20240533Y-50119999D01*
X20240533Y-50119999D02*
X20335771Y-50167618D01*
X20335771Y-50167618D02*
X20383390Y-50215237D01*
X20383390Y-50215237D02*
X20431009Y-50310475D01*
X20431009Y-50310475D02*
X20431009Y-50643808D01*
X2238095Y-3454819D02*
X2238095Y-2454819D01*
X2238095Y-2931009D02*
X2809523Y-2931009D01*
X2809523Y-3454819D02*
X2809523Y-2454819D01*
X3809523Y-3454819D02*
X3238095Y-3454819D01*
X3523809Y-3454819D02*
X3523809Y-2454819D01*
X3523809Y-2454819D02*
X3428571Y-2597676D01*
X3428571Y-2597676D02*
X3333333Y-2692914D01*
X3333333Y-2692914D02*
X3238095Y-2740533D01*
X2238095Y-92454819D02*
X2238095Y-91454819D01*
X2238095Y-91931009D02*
X2809523Y-91931009D01*
X2809523Y-92454819D02*
X2809523Y-91454819D01*
X3190476Y-91454819D02*
X3809523Y-91454819D01*
X3809523Y-91454819D02*
X3476190Y-91835771D01*
X3476190Y-91835771D02*
X3619047Y-91835771D01*
X3619047Y-91835771D02*
X3714285Y-91883390D01*
X3714285Y-91883390D02*
X3761904Y-91931009D01*
X3761904Y-91931009D02*
X3809523Y-92026247D01*
X3809523Y-92026247D02*
X3809523Y-92264342D01*
X3809523Y-92264342D02*
X3761904Y-92359580D01*
X3761904Y-92359580D02*
X3714285Y-92407200D01*
X3714285Y-92407200D02*
X3619047Y-92454819D01*
X3619047Y-92454819D02*
X3333333Y-92454819D01*
X3333333Y-92454819D02*
X3238095Y-92407200D01*
X3238095Y-92407200D02*
X3190476Y-92359580D01*
X2954819Y-56762857D02*
X3669104Y-56762857D01*
X3669104Y-56762857D02*
X3811961Y-56810476D01*
X3811961Y-56810476D02*
X3907200Y-56905714D01*
X3907200Y-56905714D02*
X3954819Y-57048571D01*
X3954819Y-57048571D02*
X3954819Y-57143809D01*
X4050057Y-56524762D02*
X4050057Y-55762857D01*
X2954819Y-55619999D02*
X3954819Y-54953333D01*
X2954819Y-54953333D02*
X3954819Y-55619999D01*
X3954819Y-54572380D02*
X2954819Y-54572380D01*
X3669104Y-54143809D02*
X3669104Y-53667619D01*
X3954819Y-54239047D02*
X2954819Y-53905714D01*
X2954819Y-53905714D02*
X3954819Y-53572381D01*
X2954819Y-53048571D02*
X2954819Y-52858095D01*
X2954819Y-52858095D02*
X3002438Y-52762857D01*
X3002438Y-52762857D02*
X3097676Y-52667619D01*
X3097676Y-52667619D02*
X3288152Y-52620000D01*
X3288152Y-52620000D02*
X3621485Y-52620000D01*
X3621485Y-52620000D02*
X3811961Y-52667619D01*
X3811961Y-52667619D02*
X3907200Y-52762857D01*
X3907200Y-52762857D02*
X3954819Y-52858095D01*
X3954819Y-52858095D02*
X3954819Y-53048571D01*
X3954819Y-53048571D02*
X3907200Y-53143809D01*
X3907200Y-53143809D02*
X3811961Y-53239047D01*
X3811961Y-53239047D02*
X3621485Y-53286666D01*
X3621485Y-53286666D02*
X3288152Y-53286666D01*
X3288152Y-53286666D02*
X3097676Y-53239047D01*
X3097676Y-53239047D02*
X3002438Y-53143809D01*
X3002438Y-53143809D02*
X2954819Y-53048571D01*
X4050057Y-52429524D02*
X4050057Y-51667619D01*
X3669104Y-51477142D02*
X3669104Y-51000952D01*
X3954819Y-51572380D02*
X2954819Y-51239047D01*
X2954819Y-51239047D02*
X3954819Y-50905714D01*
X3669104Y-50619999D02*
X3669104Y-50143809D01*
X3954819Y-50715237D02*
X2954819Y-50381904D01*
X2954819Y-50381904D02*
X3954819Y-50048571D01*
%TO.C,J_XIAO_BA*%
D11*
X2230000Y-17365000D02*
X2865000Y-16730000D01*
X2230000Y-34510000D02*
X2230000Y-17365000D01*
X2865000Y-16730000D02*
X4770000Y-16730000D01*
X4770000Y-16730000D02*
X4770000Y-34510000D01*
X4770000Y-34510000D02*
X2230000Y-34510000D01*
%TO.C,J_XIAO_BB*%
X19230000Y-17365000D02*
X19865000Y-16730000D01*
X19230000Y-34510000D02*
X19230000Y-17365000D01*
X19865000Y-16730000D02*
X21770000Y-16730000D01*
X21770000Y-16730000D02*
X21770000Y-34510000D01*
X21770000Y-34510000D02*
X19230000Y-34510000D01*
%TO.C,J_XIAO_AB*%
X19230000Y-45365000D02*
X19865000Y-44730000D01*
X19230000Y-62510000D02*
X19230000Y-45365000D01*
X19865000Y-44730000D02*
X21770000Y-44730000D01*
X21770000Y-44730000D02*
X21770000Y-62510000D01*
X21770000Y-62510000D02*
X19230000Y-62510000D01*
%TO.C,J_XIAO_AA*%
X2230000Y-45365000D02*
X2865000Y-44730000D01*
X2230000Y-62510000D02*
X2230000Y-45365000D01*
X2865000Y-44730000D02*
X4770000Y-44730000D01*
X4770000Y-44730000D02*
X4770000Y-62510000D01*
X4770000Y-62510000D02*
X2230000Y-62510000D01*
%TD*%
M02*
