%TF.GenerationSoftware,KiCad,Pcbnew,10.0.5*%
%TF.CreationDate,2026-08-06T11:12:51-04:00*%
%TF.ProjectId,carrier,63617272-6965-4722-9e6b-696361645f70,rev?*%
%TF.SameCoordinates,Original*%
%TF.FileFunction,AssemblyDrawing,Top*%
%FSLAX46Y46*%
G04 Gerber Fmt 4.6, Leading zero omitted, Abs format (unit mm)*
G04 Created by KiCad (PCBNEW 10.0.5) date 2026-08-06 11:12:51*
%MOMM*%
%LPD*%
G01*
G04 APERTURE LIST*
%ADD10C,0.150000*%
G04 APERTURE END LIST*
D10*
X2238095Y-67454819D02*
X2238095Y-66454819D01*
X2238095Y-66931009D02*
X2809523Y-66931009D01*
X2809523Y-67454819D02*
X2809523Y-66454819D01*
X3190476Y-66454819D02*
X3809523Y-66454819D01*
X3809523Y-66454819D02*
X3476190Y-66835771D01*
X3476190Y-66835771D02*
X3619047Y-66835771D01*
X3619047Y-66835771D02*
X3714285Y-66883390D01*
X3714285Y-66883390D02*
X3761904Y-66931009D01*
X3761904Y-66931009D02*
X3809523Y-67026247D01*
X3809523Y-67026247D02*
X3809523Y-67264342D01*
X3809523Y-67264342D02*
X3761904Y-67359580D01*
X3761904Y-67359580D02*
X3714285Y-67407200D01*
X3714285Y-67407200D02*
X3619047Y-67454819D01*
X3619047Y-67454819D02*
X3333333Y-67454819D01*
X3333333Y-67454819D02*
X3238095Y-67407200D01*
X3238095Y-67407200D02*
X3190476Y-67359580D01*
X2238095Y-3454819D02*
X2238095Y-2454819D01*
X2238095Y-2931009D02*
X2809523Y-2931009D01*
X2809523Y-3454819D02*
X2809523Y-2454819D01*
X3809523Y-3454819D02*
X3238095Y-3454819D01*
X3523809Y-3454819D02*
X3523809Y-2454819D01*
X3523809Y-2454819D02*
X3428571Y-2597676D01*
X3428571Y-2597676D02*
X3333333Y-2692914D01*
X3333333Y-2692914D02*
X3238095Y-2740533D01*
X20238095Y-67454819D02*
X20238095Y-66454819D01*
X20238095Y-66931009D02*
X20809523Y-66931009D01*
X20809523Y-67454819D02*
X20809523Y-66454819D01*
X21714285Y-66788152D02*
X21714285Y-67454819D01*
X21476190Y-66407200D02*
X21238095Y-67121485D01*
X21238095Y-67121485D02*
X21857142Y-67121485D01*
X20238095Y-3454819D02*
X20238095Y-2454819D01*
X20238095Y-2931009D02*
X20809523Y-2931009D01*
X20809523Y-3454819D02*
X20809523Y-2454819D01*
X21238095Y-2550057D02*
X21285714Y-2502438D01*
X21285714Y-2502438D02*
X21380952Y-2454819D01*
X21380952Y-2454819D02*
X21619047Y-2454819D01*
X21619047Y-2454819D02*
X21714285Y-2502438D01*
X21714285Y-2502438D02*
X21761904Y-2550057D01*
X21761904Y-2550057D02*
X21809523Y-2645295D01*
X21809523Y-2645295D02*
X21809523Y-2740533D01*
X21809523Y-2740533D02*
X21761904Y-2883390D01*
X21761904Y-2883390D02*
X21190476Y-3454819D01*
X21190476Y-3454819D02*
X21809523Y-3454819D01*
M02*
